<?xml version="1.0" encoding="UTF-8"?>
<svg width="556" height="114" viewBox="0 0 556 114" fill="none" xmlns="http://www.w3.org/2000/svg">
<title>Counter-Strike 2 logo</title>
<path d="M523.741 67.294H523.367H437.513H435.859L435.212 68.8161L427.464 87.0463L425.986 90.5242H429.765H513.671C519.076 90.5242 522.755 96.0811 520.617 101.108L520.617 101.109L516.199 111.5H390.242L408.292 69.0346C408.292 69.0346 408.292 69.0345 408.292 69.0344C414.228 55.0749 427.879 46.0253 442.979 46.0253H515.551H517.205L517.852 44.5031L525.459 26.6054L526.937 23.1275H523.158H427.806L436.581 2.5H535.868C548.485 2.5 557.032 15.4584 552.063 27.1469L539.562 56.5543L539.562 56.5549C536.841 62.9606 530.641 67.1476 523.741 67.294Z" stroke="#f0b429" stroke-width="5"/>
<path fill-rule="evenodd" clip-rule="evenodd" d="M24.4978 3.09906C18.4103 3.09758 12.9053 6.69733 10.4957 12.2521L0.616766 35.3142C-1.52246 40.3108 2.16591 45.8552 7.63049 45.8552H39.798C41.3247 45.8552 42.7036 44.9497 43.3026 43.5543L46.4995 36.1128H12.6454L21.6968 15.022L16.7819 12.7122H54.0346C55.5613 12.7122 56.9402 11.8067 57.5392 10.4114L60.6793 3.10351L24.4978 3.09906ZM107.486 36.6413C105.095 42.2287 99.5831 45.8552 93.4806 45.8552H59.4804C54.0208 45.8552 50.3363 40.3034 52.4813 35.3053L62.3593 12.2951C64.7535 6.71813 70.2608 3.09908 76.3574 3.09908H110.358C115.819 3.09908 119.502 8.65235 117.357 13.6489L107.486 36.6413ZM96.361 33.8135L105.414 12.7123H68.8601L73.5351 15.022L64.482 36.1129H92.8615C94.386 36.1129 95.7629 35.2074 96.361 33.812V33.8135ZM137.29 109.489H130.063L144.308 76.3413C143.752 76.3413 128.561 76.3442 128.561 76.3442L132.724 66.7325H176.458L173.565 73.5402C172.875 75.1671 170.908 76.3442 168.984 76.3442H156.54L144.308 104.881C143.111 107.675 140.349 109.489 137.29 109.489ZM280.414 97.6003H276.567L266.104 97.5854L260.908 109.487H248.891L267.301 66.7325H279.287L270.612 86.9157L299.081 67.4035C299.717 66.9671 300.472 66.7325 301.246 66.7325H319.267L287.369 88.7682L301.764 109.489H288.597L280.414 97.6017V97.6003ZM257.413 66.7325H245.089L226.706 109.489H235.678C237.605 109.489 239.666 108.218 240.358 106.589L251.076 81.533L257.413 66.7325ZM221.373 109.487H208.537L203.242 99.7452H180.523L178.314 104.887C177.116 107.678 174.357 109.487 171.304 109.487H163.979L182.347 66.7325H223.2C228.667 66.7325 232.356 72.2841 230.209 77.2806L222.292 95.7136C221.242 98.1599 218.823 99.7467 216.147 99.7467L221.375 109.489L221.373 109.487ZM225.389 88.308L218.589 76.3439L184.912 76.3736L189.572 78.615L184.607 90.2377H210.132C211.661 90.2377 213.041 89.3293 213.639 87.931L218.587 76.3454L225.389 88.308ZM327.446 84.4908H355.07L352.469 90.525C351.868 91.9159 350.493 92.8185 348.972 92.8185H323.851L320.858 99.7463H354.599L351.426 107.182C350.83 108.58 349.452 109.489 347.925 109.489H310.145C307.416 109.489 305.575 106.713 306.646 104.214L320.749 71.3328C321.947 68.5436 324.7 66.7325 327.749 66.7325H368.779L365.647 74.0404C365.049 75.4358 363.671 76.3413 362.147 76.3413H325.21L329.971 78.605L327.446 84.4908ZM127.094 36.1056L141.134 3.108H133.808C130.759 3.108 128.003 4.91629 126.804 7.70444L114.929 35.3009C112.779 40.2982 116.466 45.8552 121.933 45.8552H153.111C159.226 45.8552 164.747 42.2223 167.136 36.6267L181.451 3.108L174.205 3.09909C171.147 3.09464 168.382 4.91035 167.186 7.71038L156.027 33.794C155.433 35.1985 154.049 36.1115 152.516 36.1115L127.094 36.1056ZM252.767 45.8552H245.539L259.785 12.7078C259.229 12.7078 244.037 12.7108 244.037 12.7108L248.2 3.09908H291.934L289.042 9.90669C288.351 11.5336 286.384 12.7108 284.46 12.7108H272.016L259.785 41.2475C258.587 44.0412 255.825 45.8552 252.767 45.8552ZM390.911 45.8537H390.912V45.8552L390.911 45.8537ZM385.684 36.1132L390.911 45.8537H378.075L372.78 36.1117H350.061L347.852 41.2536C346.654 44.0443 343.895 45.8537 340.842 45.8537H333.517L351.884 3.09908H392.737C398.204 3.09908 401.894 8.65067 399.747 13.6471L391.829 32.0801C390.779 34.5264 388.361 36.1132 385.684 36.1132ZM388.128 12.7105L394.929 24.6746L388.126 12.7119L383.178 24.2975C382.58 25.6958 381.2 26.6043 379.671 26.6043H354.145L359.11 14.9816L354.45 12.7401L388.128 12.7105ZM330.646 20.8574H302.957L305.488 14.9716L300.716 12.7078H337.74C339.268 12.7078 340.649 11.8023 341.249 10.4069L344.388 3.09908H303.261C300.205 3.09908 297.445 4.91009 296.245 7.69934L282.109 40.581C281.035 43.0793 282.88 45.8552 285.616 45.8552H323.484C325.015 45.8552 326.396 44.9467 326.994 43.5484L330.174 36.1129H296.354L299.354 29.185H324.534C326.059 29.185 327.437 28.2825 328.039 26.8916L330.646 20.8574ZM185.65 41.2528C184.451 44.043 181.691 45.8552 178.635 45.8552H171.307L189.685 3.1065L198.867 3.09908C200.281 3.09908 201.58 3.87382 202.24 5.11608L216.903 32.6668L227.679 7.70448C228.879 4.92313 231.632 3.11838 234.68 3.11541L242.124 3.1065L224.715 43.5562C224.115 44.9499 222.736 45.8552 221.208 45.8552H213.413C212.001 45.8552 210.705 45.0805 210.044 43.8412L195.919 17.3665L185.647 41.2528H185.65ZM100.327 99.7463L103.263 92.9105L103.264 92.909L80.3885 92.9105H77.5873C72.1254 92.9105 68.4369 87.3721 70.5703 82.377L71.7101 79.7095L73.3056 75.9687C75.6945 70.3694 81.2206 66.7325 87.3413 66.7325H126.504L123.378 74.0389C122.781 75.4373 121.399 76.3442 119.871 76.3442H79.4054L84.198 78.654L82.3142 83.0569H107.965C113.433 83.0569 117.123 88.6086 114.976 93.6052L112.105 100.288C109.709 105.868 104.19 109.489 98.0843 109.489H58.9189L62.1414 102.038C62.7434 100.647 64.1194 99.7463 65.6432 99.7463H100.327Z" fill="#f0b429"/>
</svg>
